{
  "accessors": [
    {
      "bufferView": 2,
      "componentType": 5126,
      "count": 6385,
      "max": [
        14.871149063110352,
        37.42230987548828,
        32.29679870605469
      ],
      "min": [
        -13.487506866455078,
        -35.8636360168457,
        -30.158489227294922
      ],
      "type": "VEC3"
    },
    {
      "bufferView": 2,
      "byteOffset": 76620,
      "componentType": 5126,
      "count": 6385,
      "max": [
        0.9999305009841919,
        0.9998786449432373,
        0.9999881386756897
      ],
      "min": [
        -0.9999269843101501,
        -0.9999051094055176,
        -0.9999954700469971
      ],
      "type": "VEC3"
    },
    {
      "bufferView": 3,
      "componentType": 5126,
      "count": 6385,
      "max": [
        0.9999929070472717,
        0.9999257922172546,
        0.9999785423278809,
        1.0
      ],
      "min": [
        -0.999972939491272,
        -0.9999463558197021,
        -0.9999701976776123,
        -1.0
      ],
      "type": "VEC4"
    },
    {
      "bufferView": 1,
      "componentType": 5126,
      "count": 6385,
      "max": [
        0.9980469942092896,
        0.9827839732170105
      ],
      "min": [
        0.0019529999699443579,
        0.0019529999699443579
      ],
      "type": "VEC2"
    },
    {
      "bufferView": 0,
      "componentType": 5125,
      "count": 33834,
      "type": "SCALAR"
    }
  ],
  "asset": {
    "extras": {
      "author": "pandan (https://sketchfab.com/pandan)",
      "license": "CC-BY-4.0 (http://creativecommons.org/licenses/by/4.0/)",
      "source": "https://sketchfab.com/3d-models/nike-air-mag-15ef47bad0aa4666b459cf78261abce5",
      "title": "Nike Air Mag"
    },
    "generator": "Sketchfab-12.63.0",
    "version": "2.0"
  },
  "bufferViews": [
    {
      "buffer": 0,
      "byteLength": 135336,
      "name": "floatBufferViews",
      "target": 34963
    },
    {
      "buffer": 0,
      "byteLength": 51080,
      "byteOffset": 135336,
      "byteStride": 8,
      "name": "floatBufferViews",
      "target": 34962
    },
    {
      "buffer": 0,
      "byteLength": 153240,
      "byteOffset": 186416,
      "byteStride": 12,
      "name": "floatBufferViews",
      "target": 34962
    },
    {
      "buffer": 0,
      "byteLength": 102160,
      "byteOffset": 339656,
      "byteStride": 16,
      "name": "floatBufferViews",
      "target": 34962
    }
  ],
  "buffers": [
    {
      "byteLength": 441816,
      "uri": "scene.bin"
    }
  ],
  "images": [
    {
      "uri": "textures/StingrayPBS1SG_baseColor.png"
    },
    {
      "uri": "textures/StingrayPBS1SG_metallicRoughness.png"
    },
    {
      "uri": "textures/StingrayPBS1SG_emissive.png"
    },
    {
      "uri": "textures/StingrayPBS1SG_normal.png"
    }
  ],
  "materials": [
    {
      "emissiveFactor": [
        1.0,
        1.0,
        1.0
      ],
      "emissiveTexture": {
        "index": 2
      },
      "name": "StingrayPBS1SG",
      "normalTexture": {
        "index": 3
      },
      "pbrMetallicRoughness": {
        "baseColorTexture": {
          "index": 0
        },
        "metallicRoughnessTexture": {
          "index": 1
        }
      }
    }
  ],
  "meshes": [
    {
      "name": "Object_0",
      "primitives": [
        {
          "attributes": {
            "NORMAL": 1,
            "POSITION": 0,
            "TANGENT": 2,
            "TEXCOORD_0": 3
          },
          "indices": 4,
          "material": 0,
          "mode": 4
        }
      ]
    }
  ],
  "nodes": [
    {
      "children": [
        1
      ],
      "matrix": [
        0.011169638484716415,
        0.0,
        0.0,
        0.0,
        0.0,
        -0.00282160729410563,
        -0.0108073752285478,
        0.0,
        0.0,
        0.0108073752285478,
        -0.00282160729410563,
        0.0,
        0.0,
        0.2315634042024612,
        0.2447925209999085,
        1.0
      ],
      "name": "Sketchfab_model"
    },
    {
      "children": [
        2
      ],
      "name": "airmag_toPoly_01.obj.cleaner.materialmerger.gles"
    },
    {
      "mesh": 0,
      "name": "Object_2"
    }
  ],
  "samplers": [
    {
      "magFilter": 9729,
      "minFilter": 9987,
      "wrapS": 10497,
      "wrapT": 10497
    }
  ],
  "scene": 0,
  "scenes": [
    {
      "name": "Sketchfab_Scene",
      "nodes": [
        0
      ]
    }
  ],
  "textures": [
    {
      "sampler": 0,
      "source": 0
    },
    {
      "sampler": 0,
      "source": 1
    },
    {
      "sampler": 0,
      "source": 2
    },
    {
      "sampler": 0,
      "source": 3
    }
  ]
}
